<svg width="116" height="15" viewBox="0 0 116 15" fill="none" xmlns="http://www.w3.org/2000/svg">
<path d="M5.02 10.58V8.12H7.46V6.46H5.02V4.02H3.36V6.46H0.9V8.12H3.36V10.58H5.02ZM14.9995 14L16.2795 10.62H21.9395L23.2195 14H25.6995L20.4595 0.6H17.8595L12.6195 14H14.9995ZM18.3995 5.04L19.1195 2.62L19.8395 5.04L21.1995 8.66H17.0195L18.3995 5.04ZM29.9116 14.22C31.8516 14.22 32.6716 12.92 32.9916 11.42V14H35.2316V0.6H32.9916V6.88C32.6716 5.36 31.8116 4.06 29.8716 4.06C27.5116 4.06 25.9916 6 25.9916 9.14C25.9916 12.28 27.5116 14.22 29.9116 14.22ZM28.2916 9.14C28.2916 6.96 29.3516 5.88 30.7516 5.88C32.3316 5.88 32.9916 6.94 32.9916 8.54V9.76C32.9916 11.36 32.3316 12.4 30.7716 12.4C29.3516 12.4 28.2916 11.34 28.2916 9.14ZM40.9663 14.22C42.9063 14.22 43.7263 12.92 44.0463 11.42V14H46.2863V0.6H44.0463V6.88C43.7263 5.36 42.8663 4.06 40.9263 4.06C38.5663 4.06 37.0463 6 37.0463 9.14C37.0463 12.28 38.5663 14.22 40.9663 14.22ZM39.3462 9.14C39.3462 6.96 40.4063 5.88 41.8063 5.88C43.3863 5.88 44.0463 6.94 44.0463 8.54V9.76C44.0463 11.36 43.3863 12.4 41.8263 12.4C40.4063 12.4 39.3462 11.34 39.3462 9.14ZM57.0211 14.2C59.4611 14.2 61.0011 12.82 61.5211 10.98L59.5011 9.98C59.2811 11.38 58.5811 12.32 57.0611 12.32C55.5211 12.32 54.5811 11.18 54.5811 9.14C54.5811 7.08 55.5211 5.94 57.0611 5.94C58.5611 5.94 59.2811 6.88 59.5011 8.28L61.5211 7.28C61.0011 5.44 59.4611 4.06 57.0211 4.06C54.1211 4.06 52.3011 6.1 52.3011 9.14C52.3011 12.16 54.1211 14.2 57.0211 14.2ZM65.4903 14V0.6H63.2503V14H65.4903ZM71.9597 14.2C74.7997 14.2 76.7197 12.16 76.7197 9.14C76.7197 6.1 74.7997 4.06 71.9597 4.06C69.1597 4.06 67.2397 6.1 67.2397 9.14C67.2397 12.16 69.1597 14.2 71.9597 14.2ZM71.9797 12.34C70.5397 12.34 69.5397 11.38 69.5397 9.14C69.5397 6.88 70.5397 5.92 71.9797 5.92C73.4397 5.92 74.4397 6.88 74.4397 9.14C74.4397 11.38 73.4397 12.34 71.9797 12.34ZM81.9852 14.22C83.4052 14.22 84.3652 13.56 84.7852 12.94L84.0852 10.94C83.8052 11.5 83.2452 12.12 82.4852 12.12C81.8252 12.12 81.3252 11.86 81.3252 10.8V6H84.3052V4.26H81.3252V1.66L79.0852 3.08V4.26H77.5652V6H79.0852V11.34C79.0852 13.06 80.1452 14.22 81.9852 14.22ZM88.5372 14V8.54C88.5372 6.94 89.0972 5.88 90.7372 5.88C92.2372 5.88 92.6372 6.7 92.6372 7.9V14H94.8972V7.22C94.8972 5.2 93.7372 4.06 91.8372 4.06C89.8972 4.06 88.8972 5.38 88.5372 6.92V0.6H86.2972V14H88.5372ZM101.477 14.2C103.637 14.2 104.957 13.22 105.697 12.1L104.317 10.66C103.957 11.48 103.197 12.36 101.497 12.36C99.9566 12.36 98.9366 11.42 98.8166 9.68H105.777C105.817 9.48 105.857 9.06 105.857 8.7C105.857 6 104.237 4.06 101.317 4.06C98.5766 4.06 96.6766 6.08 96.6766 9.14C96.6766 12.18 98.5766 14.2 101.477 14.2ZM101.317 5.86C102.797 5.86 103.677 6.7 103.837 8.24H98.8366C99.0166 6.66 99.9366 5.86 101.317 5.86ZM111.665 14.2C113.725 14.2 115.345 13.24 115.345 11.32C115.345 9.92 114.545 9.04 112.365 8.48L111.185 8.18C109.865 7.84 109.345 7.58 109.345 6.88C109.345 6.22 109.925 5.86 110.785 5.86C112.045 5.86 113.085 6.5 113.765 7.58L115.085 6.18C114.485 5.08 113.025 4.08 110.945 4.08C108.705 4.08 107.245 5.18 107.245 7C107.245 8.78 108.665 9.46 110.205 9.82L111.505 10.14C112.585 10.4 113.325 10.64 113.325 11.36C113.325 12.06 112.705 12.4 111.745 12.4C110.005 12.4 108.805 11.4 108.265 10.42L106.945 11.82C107.685 13.36 109.585 14.2 111.665 14.2Z" fill="black"/>
</svg>
